# xmcd
#
# Track frame offsets:
#	150
#	8997
#	26403
#	35647
#	50669
#	66331
#	79139
#	92425
#	107175
#	119940
#	136355
#	150559
#	168108
#	181767
#	204160
#	220872
#	243932
#	255960
#	268536
#
# Disc length: 3791 seconds
#
# Revision: 1
# Processed by: cddbd v1.4PL0 Copyright (c) Steve Scherf et al.
# Submitted via: EasyCDDAExtractor 5.0.7
#
DISCID=fd0ecd13
DTITLE=Tom Jones - Reloaded Greatest Hits
DYEAR=1900
DGENRE=
TTITLE0=Its Not Unsual
TTITLE1=Sexbomb (Peppermint Jam Mix With Mousse T)
TTITLE2=Whats New Pussycat
TTITLE3=Delilah
TTITLE4=Kiss (Art Of Noise Feat Tom Jones)
TTITLE5=Shes A Lady
TTITLE6=Mama Told Me Not To Come (With Stereophonics)
TTITLE7=Tom Jones International
TTITLE8=Thunderball
TTITLE9=Baby Its Cold Outside (With Cerys Matthews Of Catatonia)
TTITLE10=Black Betty
TTITLE11=If I Only Knew
TTITLE12=Green Green Grass Of Home
TTITLE13=Sometimes We Cry (With Van Morrison)
TTITLE14=Without Love (There Is Nothing)
TTITLE15=Motherless Child (With Portishead)
TTITLE16=With These Hands
TTITLE17=Help Yourself
TTITLE18=Burning Down The House (With The Cardigans)
EXTD=
EXTT0=
EXTT1=
EXTT2=
EXTT3=
EXTT4=
EXTT5=
EXTT6=
EXTT7=
EXTT8=
EXTT9=
EXTT10=
EXTT11=
EXTT12=
EXTT13=
EXTT14=
EXTT15=
EXTT16=
EXTT17=
EXTT18=
PLAYORDER=
